<svg xmlns="http://www.w3.org/2000/svg" enable-background="new 0 0 47.5 47.5" viewBox="0 0 47.5 47.5" id="ring"><defs><clipPath id="a"><path d="M0 38h38V0H0v38Z"></path></clipPath></defs><g clip-path="url(#a)" transform="matrix(1.25 0 0 -1.25 0 47.5)"><path fill="#9aaab4" d="M0 0a8 8 0 1 0 0 16A8 8 0 0 0 0 0m0 20c-6.627 0-12-5.373-12-12S-6.627-4 0-4 12 1.373 12 8 6.627 20 0 20" transform="translate(19 5)"></path><path fill="#5dadec" d="m0 0-4 5h-14l-4-5 11-9L0 0z" transform="translate(30 32)"></path><path fill="#8ccaf7" d="m0 0-4 5h-14l-4-5H0z" transform="translate(30 32)"></path><path fill="#5dadec" d="m0 0-4 5h-7V0H0z" transform="translate(30 32)"></path><path fill="#8ccaf7" d="M0 0h11L0-9v9Z" transform="translate(19 32)"></path><path fill="#9aaab4" d="M0 0a3 3 0 0 0-3-3h-8a3 3 0 1 0 0 6h8a3 3 0 0 0 3-3" transform="translate(26 24)"></path></g></svg>